<?xml version="1.0" encoding="utf-8"?>
<!-- Generator: Adobe Illustrator 28.0.0, SVG Export Plug-In . SVG Version: 6.00 Build 0)  -->
<svg version="1.1" id="Layer_1" xmlns="http://www.w3.org/2000/svg" xmlns:xlink="http://www.w3.org/1999/xlink" x="0px" y="0px"
	 viewBox="0 0 42.9 38.9" style="enable-background:new 0 0 42.9 38.9;" xml:space="preserve">
<style type="text/css">
	.st0{fill:#FF5C5C;}
</style>
<path class="st0" d="M31.5,0c-2.6,0-5.1,0.9-7.2,2.4l-0.4,7.9l-3.1,4l3.1,4.6l-2.4,4.7l1.7,6l-3.6-5.9l1.9-4.3l-3.8-4.7l3.8-5.1
	l-3.7-7.7c-1.9-1.2-4.2-1.8-6.4-1.8C5,0.1,0,5.1,0,11.5c0,8,7.4,14.8,18.7,25l2.7,2.4l2.7-2.4c11.3-10.3,18.8-17.1,18.8-25.1
	C42.9,5,37.9,0,31.5,0z"/>
</svg>
