<?xml version="1.0" encoding="utf-8"?>
<!-- Generator: Adobe Illustrator 28.0.0, SVG Export Plug-In . SVG Version: 6.00 Build 0)  -->
<svg version="1.1" id="Layer_1" xmlns="http://www.w3.org/2000/svg" xmlns:xlink="http://www.w3.org/1999/xlink" x="0px" y="0px"
	 viewBox="0 0 844 147.8" style="enable-background:new 0 0 844 147.8;" xml:space="preserve">
<style type="text/css">
	.st0{fill:#FFFFFF;}
</style>
<g>
	<path class="st0" d="M106.2,147.8L99,120.2H51.2l-7.4,27.6H0L48,0h53.1l48.6,147.8H106.2z M90.7,87.6l-6.3-24.2
		c-1.5-5.4-3.3-12.3-5.4-20.8c-2.1-8.5-3.5-14.6-4.2-18.3c-0.6,3.4-1.8,9.1-3.6,16.9c-1.8,7.9-5.7,23.3-11.8,46.4H90.7z"/>
	<path class="st0" d="M205.4,94.2v53.6h-39.8V0.6h48.2c40,0,60,14.5,60,43.5c0,17.1-8.3,30.2-25,39.6l42.9,64.1h-45.1l-31.2-53.6
		H205.4z M205.4,64.3h7.5c13.9,0,20.8-6.1,20.8-18.4c0-10.1-6.8-15.2-20.4-15.2h-7.9V64.3z"/>
	<path class="st0" d="M370.2,147.8h-39.8V33.1h-35.9V0.6H406v32.5h-35.8V147.8z"/>
</g>
<g>
	<path class="st0" d="M488.9,51.7c0,4.5-1.1,8.5-3.4,12c-2.3,3.5-5.6,6.2-9.9,8.1c-4.3,1.9-9.4,2.9-15.1,2.9c-4.8,0-8.9-0.3-12.2-1
		s-6.7-1.9-10.2-3.5V52.7c3.7,1.9,7.6,3.4,11.7,4.5c4,1.1,7.7,1.6,11.1,1.6c2.9,0,5.1-0.5,6.4-1.5c1.4-1,2-2.3,2-3.9
		c0-1-0.3-1.9-0.8-2.6c-0.5-0.7-1.4-1.5-2.6-2.3c-1.2-0.8-4.4-2.3-9.7-4.7c-4.7-2.2-8.3-4.2-10.7-6.3c-2.4-2-4.1-4.3-5.3-7
		c-1.1-2.6-1.7-5.7-1.7-9.3c0-6.7,2.4-11.9,7.3-15.6c4.9-3.7,11.6-5.6,20.1-5.6c7.5,0,15.2,1.7,23,5.2l-6,15.2
		c-6.8-3.1-12.7-4.7-17.6-4.7c-2.5,0-4.4,0.5-5.6,1.3c-1.2,0.9-1.7,2-1.7,3.3c0,1.4,0.7,2.7,2.2,3.8c1.5,1.1,5.5,3.2,12,6.2
		c6.3,2.8,10.6,5.8,13,9.1C487.7,42.7,488.9,46.8,488.9,51.7z"/>
	<path class="st0" d="M568.1,37.4c0,16.5-5.2,27.6-15.7,33.3l17.7,20.4h-24.4l-12.8-16.1l-0.1,0v-0.1l-0.1,0
		c-11.4,0-20.1-3.2-26.2-9.6c-6.1-6.4-9.1-15.7-9.1-27.9c0-12.1,3-21.3,9.1-27.7c6-6.4,14.8-9.6,26.4-9.6c11.6,0,20.3,3.2,26.3,9.5
		C565.1,15.8,568.1,25.1,568.1,37.4z M518.1,37.4c0,14,4.9,21.1,14.7,21.1c5,0,8.7-1.7,11.1-5.1c2.4-3.4,3.6-8.7,3.6-15.9
		c0-7.3-1.2-12.6-3.7-16.1c-2.4-3.5-6.1-5.2-10.9-5.2C523,16.1,518.1,23.2,518.1,37.4z"/>
	<path class="st0" d="M642.9,1.1v43.7c0,9.5-2.7,16.9-8.1,22.1c-5.4,5.2-13.1,7.8-23.3,7.8c-9.9,0-17.5-2.5-22.8-7.6
		c-5.3-5.1-8-12.4-8-21.9V1.1h19.7v42.6c0,5.1,1,8.9,2.9,11.2c1.9,2.3,4.8,3.5,8.5,3.5c4,0,6.9-1.1,8.7-3.4
		c1.8-2.3,2.7-6.1,2.7-11.3V1.1H642.9z"/>
	<path class="st0" d="M702.7,73.8l-3.6-13.6h-23.6l-3.7,13.6h-21.6L674,0.8h26.2l24,72.9H702.7z M695.1,44.1l-3.1-11.9
		c-0.7-2.6-1.6-6.1-2.7-10.3c-1-4.2-1.7-7.2-2.1-9c-0.3,1.7-0.9,4.5-1.8,8.3s-2.8,11.5-5.8,22.9H695.1z"/>
	<path class="st0" d="M751.7,47.3v26.4H732V1.1h23.8c19.7,0,29.6,7.2,29.6,21.5c0,8.4-4.1,14.9-12.3,19.5l21.2,31.6H772l-15.4-26.4
		H751.7z M751.7,32.6h3.7c6.9,0,10.3-3,10.3-9.1c0-5-3.4-7.5-10.1-7.5h-3.9V32.6z"/>
	<path class="st0" d="M844,73.8h-43.1V1.1H844v15.8h-23.5v11.4h21.8v15.7h-21.8v13.7H844V73.8z"/>
</g>
<rect x="438" y="116.1" class="st0" width="406" height="31.7"/>
</svg>
