<?xml version="1.0" encoding="utf-8"?>
<!-- Generator: Adobe Illustrator 28.0.0, SVG Export Plug-In . SVG Version: 6.00 Build 0)  -->
<svg version="1.1" id="Layer_1" xmlns="http://www.w3.org/2000/svg" xmlns:xlink="http://www.w3.org/1999/xlink" x="0px" y="0px"
	 viewBox="0 0 44.7 41" style="enable-background:new 0 0 44.7 41;" xml:space="preserve">
<style type="text/css">
	.st0{fill:rgba(255, 92, 92, 0);}
	.st1{fill:rgb(255, 92, 92);}
</style>
<g>
	<path class="st0" d="M19.6,37.3c-11.3-10.2-18.7-17-18.7-25c0-6.4,5-11.4,11.4-11.4c3.5,0,7.1,1.6,9.4,4.4L22.3,6L23,5.2
		c2.3-2.7,5.8-4.4,9.4-4.4c6.4,0,11.4,5,11.4,11.4c0,8-7.5,14.8-18.8,25.1l-2.7,2.4L19.6,37.3z"/>
	<path class="st1" d="M32.4,1.8c5.9,0,10.5,4.6,10.5,10.5c0,7.6-7.4,14.3-18.5,24.4l-2,1.9l-2-1.8l-0.1-0.1
		C9.1,26.6,1.8,19.9,1.8,12.3c0-5.9,4.6-10.5,10.5-10.5c3.3,0,6.5,1.5,8.7,4l1.4,1.6l1.4-1.6C25.9,3.3,29.1,1.8,32.4,1.8 M32.4,0
		c-3.9,0-7.6,1.8-10.1,4.7C19.9,1.8,16.2,0,12.3,0C5.4,0,0,5.4,0,12.3C0,20.7,7.6,27.6,19,38l0.1,0.1l3.2,2.9l3.2-2.9l0,0
		c11.5-10.4,19.1-17.3,19.1-25.7C44.7,5.4,39.3,0,32.4,0L32.4,0z"/>
</g>
</svg>
