<?xml version="1.0" encoding="utf-8"?>
<!-- Generator: Adobe Illustrator 28.0.0, SVG Export Plug-In . SVG Version: 6.00 Build 0)  -->
<svg version="1.1" id="Layer_1" xmlns="http://www.w3.org/2000/svg" xmlns:xlink="http://www.w3.org/1999/xlink" x="0px" y="0px"
	 viewBox="0 0 42.2 42.2" style="enable-background:new 0 0 42.2 42.2;" xml:space="preserve">
<style type="text/css">
	.st0{fill:#ffffff;}
</style>
<path class="st0" d="M21.9,41.7l19.8-19.8c0.6-0.6,0.6-1.6,0-2.2L22.5,0.5c-0.6-0.6-1.6-0.6-2.2,0L0.5,20.3C0.2,20.6,0,21,0,21.4
	l0,19.2c0,0.9,0.7,1.6,1.6,1.6l19.2,0C21.2,42.2,21.6,42,21.9,41.7z M7,31.1c1.1-1.1,3-1.1,4.1,0c1.1,1.1,1.1,3,0,4.1
	c-1.1,1.1-3,1.1-4.1,0C5.8,34.1,5.8,32.2,7,31.1z"/>
</svg>
