<?xml version="1.0" encoding="utf-8"?>
<!-- Generator: Adobe Illustrator 28.0.0, SVG Export Plug-In . SVG Version: 6.00 Build 0)  -->
<svg version="1.1" id="Layer_1" xmlns="http://www.w3.org/2000/svg" xmlns:xlink="http://www.w3.org/1999/xlink" x="0px" y="0px"
	 viewBox="0 0 844 357.3" style="enable-background:new 0 0 844 357.3;" xml:space="preserve">
<style type="text/css">
	.st0{fill:#FFFFFF;}
</style>
<g>
	<path class="st0" d="M104.7,91.2H76.1l-8.6-39.1c-0.4-1.6-1.1-4.9-1.9-9.8c-0.9-4.9-1.5-8.9-1.9-12.2c-0.3,2.7-0.9,6-1.6,9.9
		c-0.7,3.9-1.5,7.6-2.2,10.9c-0.7,3.3-3.7,16.7-8.9,40.3H22.2L0,1.4h23.4l9.8,45c2.2,9.9,3.7,17.9,4.5,23.8c0.5-4.2,1.5-9.8,2.9-17
		s2.7-13.1,3.8-17.8l7.9-34h22.5l7.7,34c1.3,5.4,2.6,11.7,4,18.9c1.4,7.1,2.3,12.4,2.7,16c0.5-4.5,2-12.4,4.4-23.6l9.9-45.1h23.4
		L104.7,91.2z"/>
	<path class="st0" d="M191.8,91.2h-53.3V1.4h53.3v19.5h-29V35h26.9v19.5h-26.9v16.9h29V91.2z"/>
	<path class="st0" d="M207.5,91.2V1.4h24.3v70.2h34.6v19.6H207.5z"/>
	<path class="st0" d="M320.6,20c-5.8,0-10.3,2.4-13.5,7.1s-4.8,11.2-4.8,19.6c0,17.3,6.6,25.9,19.7,25.9c4,0,7.8-0.6,11.5-1.7
		s7.5-2.4,11.2-4v20.5c-7.5,3.3-16,5-25.4,5c-13.5,0-23.9-3.9-31.2-11.8c-7.2-7.9-10.8-19.2-10.8-34.1c0-9.3,1.8-17.5,5.3-24.5
		s8.5-12.5,15.1-16.2s14.3-5.7,23.2-5.7c9.7,0,19,2.1,27.8,6.3l-7.4,19.1c-3.3-1.6-6.6-2.9-9.9-3.9C328,20.5,324.4,20,320.6,20z"/>
	<path class="st0" d="M446.3,46.2c0,15.1-3.7,26.6-11.1,34.4c-7.4,7.9-18.3,11.8-32.5,11.8c-14.1,0-24.9-4-32.4-11.9
		S358.9,61.2,358.9,46c0-14.9,3.7-26.3,11.2-34.2S388.5,0,402.7,0c14.3,0,25.1,3.9,32.5,11.7C442.6,19.6,446.3,31,446.3,46.2z
		 M384.5,46.2c0,17.4,6,26,18.1,26c6.1,0,10.7-2.1,13.7-6.3s4.5-10.8,4.5-19.7c0-9-1.5-15.6-4.5-19.9s-7.5-6.4-13.5-6.4
		C390.6,19.9,384.5,28.7,384.5,46.2z"/>
	<path class="st0" d="M501.6,91.2l-18.4-64.6h-0.6c0.9,11,1.3,19.6,1.3,25.7v39h-21.5V1.4h32.3l18.7,63.7h0.5l18.4-63.7h32.4v89.8
		h-22.3V51.8c0-2,0-4.3,0.1-6.8s0.3-8.6,0.8-18.4h-0.6l-18.1,64.5L501.6,91.2L501.6,91.2z"/>
	<path class="st0" d="M637.3,91.2H584V1.4h53.3v19.5h-29V35h26.9v19.5h-26.9v16.9h29V91.2z"/>
	<path class="st0" d="M725.3,91.2H701v-70h-21.9V1.4h68v19.8h-21.9v70H725.3z"/>
	<path class="st0" d="M844,46.2c0,15.1-3.7,26.6-11.1,34.4c-7.4,7.9-18.3,11.8-32.5,11.8c-14.1,0-24.9-4-32.4-11.9
		S756.7,61.2,756.7,46c0-14.9,3.7-26.3,11.2-34.2S786.2,0,800.5,0s25.1,3.9,32.5,11.7C840.3,19.6,844,31,844,46.2z M782.2,46.2
		c0,17.4,6,26,18.1,26c6.1,0,10.7-2.1,13.7-6.3s4.5-10.8,4.5-19.7c0-9-1.5-15.6-4.5-19.9s-7.5-6.4-13.5-6.4
		C788.3,19.9,782.2,28.7,782.2,46.2z"/>
</g>
<g>
	<path class="st0" d="M106.2,270.7L99,243.1H51.2l-7.4,27.6H0l48-147.8h53.1l48.6,147.8H106.2z M90.7,210.5l-6.3-24.2
		c-1.5-5.4-3.3-12.3-5.4-20.8s-3.5-14.6-4.2-18.3c-0.6,3.4-1.8,9.1-3.6,16.9c-1.8,7.9-5.7,23.3-11.8,46.4H90.7z"/>
	<path class="st0" d="M205.4,217.1v53.6h-39.8V123.5h48.2c40,0,60,14.5,60,43.5c0,17.1-8.3,30.2-25,39.6l42.9,64.1h-45.1l-31.2-53.6
		H205.4z M205.4,187.2h7.5c13.9,0,20.8-6.1,20.8-18.4c0-10.1-6.8-15.2-20.4-15.2h-7.9L205.4,187.2L205.4,187.2z"/>
	<path class="st0" d="M370.2,270.7h-39.8V156h-35.9v-32.5H406V156h-35.8V270.7z"/>
</g>
<g>
	<path class="st0" d="M488.9,174.6c0,4.5-1.1,8.5-3.4,12s-5.6,6.2-9.9,8.1c-4.3,1.9-9.4,2.9-15.1,2.9c-4.8,0-8.9-0.3-12.2-1
		s-6.7-1.9-10.2-3.5v-17.5c3.7,1.9,7.6,3.4,11.7,4.5c4,1.1,7.7,1.6,11.1,1.6c2.9,0,5.1-0.5,6.4-1.5c1.4-1,2-2.3,2-3.9
		c0-1-0.3-1.9-0.8-2.6c-0.5-0.7-1.4-1.5-2.6-2.3s-4.4-2.3-9.7-4.7c-4.7-2.2-8.3-4.2-10.7-6.3c-2.4-2-4.1-4.3-5.3-7
		c-1.1-2.6-1.7-5.7-1.7-9.3c0-6.7,2.4-11.9,7.3-15.6c4.9-3.7,11.6-5.6,20.1-5.6c7.5,0,15.2,1.7,23,5.2l-6,15.2
		c-6.8-3.1-12.7-4.7-17.6-4.7c-2.5,0-4.4,0.5-5.6,1.3c-1.2,0.9-1.7,2-1.7,3.3c0,1.4,0.7,2.7,2.2,3.8s5.5,3.2,12,6.2
		c6.3,2.8,10.6,5.8,13,9.1C487.7,165.6,488.9,169.7,488.9,174.6z"/>
	<path class="st0" d="M568.1,160.2c0,16.5-5.2,27.6-15.7,33.3l17.7,20.4h-24.4l-12.8-16.1h-0.1v-0.1h-0.1c-11.4,0-20.1-3.2-26.2-9.6
		s-9.1-15.7-9.1-27.9c0-12.1,3-21.3,9.1-27.7c6-6.4,14.8-9.6,26.4-9.6c11.6,0,20.3,3.2,26.3,9.5C565.1,138.7,568.1,148,568.1,160.2z
		 M518.1,160.2c0,14,4.9,21.1,14.7,21.1c5,0,8.7-1.7,11.1-5.1c2.4-3.4,3.6-8.7,3.6-15.9c0-7.3-1.2-12.6-3.7-16.1
		c-2.4-3.5-6.1-5.2-10.9-5.2C523,139,518.1,146.1,518.1,160.2z"/>
	<path class="st0" d="M642.9,124v43.7c0,9.5-2.7,16.9-8.1,22.1c-5.4,5.2-13.1,7.8-23.3,7.8c-9.9,0-17.5-2.5-22.8-7.6s-8-12.4-8-21.9
		V124h19.7v42.6c0,5.1,1,8.9,2.9,11.2s4.8,3.5,8.5,3.5c4,0,6.9-1.1,8.7-3.4c1.8-2.3,2.7-6.1,2.7-11.3V124H642.9z"/>
	<path class="st0" d="M702.7,196.7l-3.6-13.6h-23.6l-3.7,13.6h-21.6l23.7-72.9h26.2l24,72.9H702.7z M695.1,167l-3.1-11.9
		c-0.7-2.6-1.6-6.1-2.7-10.3c-1-4.2-1.7-7.2-2.1-9c-0.3,1.7-0.9,4.5-1.8,8.3s-2.8,11.5-5.8,22.9H695.1z"/>
	<path class="st0" d="M751.7,170.2v26.4H732V124h23.8c19.7,0,29.6,7.2,29.6,21.5c0,8.4-4.1,14.9-12.3,19.5l21.2,31.6H772l-15.4-26.4
		L751.7,170.2L751.7,170.2z M751.7,155.5h3.7c6.9,0,10.3-3,10.3-9.1c0-5-3.4-7.5-10.1-7.5h-3.9V155.5z"/>
	<path class="st0" d="M844,196.7h-43.1V124H844v15.8h-23.5v11.4h21.8V167h-21.8v13.7H844V196.7z"/>
</g>
<g>
	<path class="st0" d="M0,344.3v-38.5h10.4v30.1h14.8v8.4H0z"/>
	<path class="st0" d="M59.3,329.3c0,4.9-1.3,8.7-3.9,11.4c-2.6,2.7-6.3,4.1-11,4.1c-4.5,0-8.1-1.4-10.8-4.2c-2.7-2.8-4-6.6-4-11.3
		c0-4.9,1.3-8.6,3.9-11.3c2.6-2.7,6.3-4,11.1-4c2.9,0,5.5,0.6,7.8,1.9s4,3,5.2,5.4C58.7,323.5,59.3,326.2,59.3,329.3z M40,329.3
		c0,2.6,0.3,4.5,1,5.9c0.7,1.3,1.8,2,3.5,2c1.6,0,2.7-0.7,3.4-2s1-3.3,1-5.9c0-2.5-0.3-4.5-1-5.8s-1.8-1.9-3.4-1.9
		c-1.6,0-2.7,0.6-3.4,1.9C40.3,324.8,40,326.7,40,329.3z"/>
	<path class="st0" d="M93.4,314.4v5l-4.1,1.5c0.6,1,0.8,2.2,0.8,3.6c0,3.2-1.1,5.7-3.4,7.5s-5.6,2.7-10.1,2.7c-1.1,0-2-0.1-2.6-0.2
		c-0.2,0.5-0.4,0.9-0.4,1.3c0,0.5,0.4,0.9,1.2,1.2c0.8,0.3,1.9,0.4,3.2,0.4h5c6.7,0,10,2.8,10,8.5c0,3.6-1.6,6.5-4.7,8.5
		s-7.5,3-13.1,3c-4.2,0-7.5-0.7-9.8-2.1c-2.3-1.4-3.4-3.4-3.4-6.1c0-3.6,2.2-5.9,6.6-6.9c-0.9-0.4-1.7-1-2.4-1.9
		c-0.7-0.9-1-1.7-1-2.6s0.3-1.8,0.8-2.5s1.6-1.6,3.2-2.5c-1.5-0.7-2.8-1.8-3.7-3.2c-0.9-1.5-1.3-3.2-1.3-5.3c0-3.2,1.1-5.8,3.3-7.6
		c2.2-1.8,5.4-2.7,9.5-2.7c0.5,0,1.5,0.1,2.8,0.2s2.3,0.2,3,0.3L93.4,314.4L93.4,314.4z M70.9,348c0,0.8,0.5,1.5,1.4,2
		s2.1,0.8,3.7,0.8c2.5,0,4.5-0.3,6-0.9s2.3-1.4,2.3-2.4c0-0.8-0.5-1.3-1.4-1.7c-0.9-0.3-2.2-0.5-3.9-0.5h-4c-1.1,0-2,0.3-2.8,0.8
		C71.2,346.6,70.9,347.3,70.9,348z M74.1,324.2c0,3.1,1.1,4.6,3.2,4.6c1,0,1.7-0.4,2.3-1.1c0.5-0.8,0.8-1.9,0.8-3.4
		c0-3.1-1-4.6-3.1-4.6C75.2,319.6,74.1,321.2,74.1,324.2z"/>
	<path class="st0" d="M111.7,307c0-1.5,0.4-2.7,1.3-3.5s2.2-1.1,4.2-1.1c1.9,0,3.3,0.4,4.2,1.2c0.9,0.8,1.3,1.9,1.3,3.4
		c0,3-1.8,4.5-5.5,4.5S111.7,310,111.7,307z M122.3,344.3H112v-29.9h10.3V344.3z"/>
	<path class="st0" d="M148.3,344.3V328c0-2-0.3-3.5-0.9-4.5s-1.5-1.5-2.8-1.5c-1.7,0-3,0.7-3.8,2.1s-1.2,3.8-1.2,7.1v13.1h-10.3
		v-29.9h7.8l1.3,3.7h0.6c0.9-1.4,2.1-2.5,3.6-3.2c1.6-0.7,3.3-1.1,5.4-1.1c3.3,0,5.9,1,7.7,2.9s2.8,4.6,2.8,8.1v19.4L148.3,344.3
		L148.3,344.3z"/>
	<path class="st0" d="M208.2,329.3c0,4.9-1.3,8.7-3.9,11.4c-2.6,2.7-6.3,4.1-11,4.1c-4.5,0-8.1-1.4-10.8-4.2c-2.7-2.8-4-6.6-4-11.3
		c0-4.9,1.3-8.6,3.9-11.3c2.6-2.7,6.3-4,11.1-4c2.9,0,5.5,0.6,7.8,1.9s4,3,5.2,5.4C207.6,323.5,208.2,326.2,208.2,329.3z
		 M188.8,329.3c0,2.6,0.3,4.5,1,5.9c0.7,1.3,1.8,2,3.5,2c1.6,0,2.7-0.7,3.4-2s1-3.3,1-5.9c0-2.5-0.3-4.5-1-5.8s-1.8-1.9-3.4-1.9
		c-1.6,0-2.7,0.6-3.4,1.9C189.2,324.8,188.8,326.7,188.8,329.3z"/>
	<path class="st0" d="M232.1,313.9c0.9,0,1.7,0.1,2.6,0.2l0.6,0.1l-0.9,9.7c-0.8-0.2-2-0.3-3.5-0.3c-2.2,0-3.9,0.5-4.9,1.5
		s-1.5,2.5-1.5,4.4v14.7h-10.3v-29.9h7.7l1.6,4.8h0.5c0.9-1.6,2.1-2.9,3.6-3.8C229,314.4,230.5,313.9,232.1,313.9z"/>
	<path class="st0" d="M276.5,335.1c0,3.2-1.1,5.6-3.3,7.2c-2.2,1.6-5.3,2.5-9.4,2.5c-2.2,0-4.1-0.1-5.8-0.4c-1.6-0.2-3.3-0.7-5-1.3
		v-8.3c1.6,0.7,3.4,1.3,5.3,1.7c1.9,0.5,3.6,0.7,5.1,0.7c2.2,0,3.3-0.5,3.3-1.5c0-0.5-0.3-1-0.9-1.4s-2.4-1.2-5.4-2.4
		c-2.7-1.1-4.7-2.4-5.7-3.8c-1.1-1.4-1.6-3.2-1.6-5.4c0-2.8,1.1-4.9,3.2-6.5c2.1-1.6,5.2-2.3,9.1-2.3c2,0,3.8,0.2,5.6,0.6
		c1.7,0.4,3.5,1.1,5.4,1.9l-2.8,6.6c-1.4-0.6-2.8-1.1-4.3-1.6c-1.5-0.4-2.8-0.6-3.7-0.6c-1.7,0-2.5,0.4-2.5,1.2
		c0,0.5,0.3,0.9,0.9,1.3s2.3,1.1,5.1,2.2c2.1,0.9,3.6,1.7,4.7,2.5c1,0.8,1.8,1.8,2.3,2.9C276.2,332.2,276.5,333.5,276.5,335.1z"/>
	<path class="st0" d="M282,307c0-1.5,0.4-2.7,1.3-3.5s2.2-1.1,4.2-1.1c1.9,0,3.3,0.4,4.2,1.2c0.9,0.8,1.3,1.9,1.3,3.4
		c0,3-1.8,4.5-5.5,4.5S282,310,282,307z M292.5,344.3h-10.3v-29.9h10.3V344.3z"/>
	<path class="st0" d="M327.9,314.4v5l-4.1,1.5c0.6,1,0.8,2.2,0.8,3.6c0,3.2-1.1,5.7-3.4,7.5s-5.6,2.7-10.1,2.7c-1.1,0-2-0.1-2.6-0.2
		c-0.2,0.5-0.4,0.9-0.4,1.3c0,0.5,0.4,0.9,1.2,1.2c0.8,0.3,1.9,0.4,3.2,0.4h5c6.7,0,10,2.8,10,8.5c0,3.6-1.6,6.5-4.7,8.5
		s-7.5,3-13.1,3c-4.2,0-7.5-0.7-9.8-2.1s-3.4-3.4-3.4-6.1c0-3.6,2.2-5.9,6.6-6.9c-0.9-0.4-1.7-1-2.4-1.9c-0.7-0.9-1-1.7-1-2.6
		s0.3-1.8,0.8-2.5s1.6-1.6,3.2-2.5c-1.5-0.7-2.8-1.8-3.7-3.2c-0.9-1.5-1.3-3.2-1.3-5.3c0-3.2,1.1-5.8,3.3-7.6
		c2.2-1.8,5.4-2.7,9.5-2.7c0.5,0,1.5,0.1,2.8,0.2s2.3,0.2,3,0.3L327.9,314.4L327.9,314.4z M305.4,348c0,0.8,0.5,1.5,1.4,2
		s2.1,0.8,3.7,0.8c2.5,0,4.5-0.3,6-0.9s2.3-1.4,2.3-2.4c0-0.8-0.5-1.3-1.4-1.7c-0.9-0.3-2.2-0.5-3.9-0.5h-4c-1.1,0-2,0.3-2.8,0.8
		C305.8,346.6,305.4,347.3,305.4,348z M308.6,324.2c0,3.1,1.1,4.6,3.2,4.6c1,0,1.7-0.4,2.3-1.1c0.5-0.8,0.8-1.9,0.8-3.4
		c0-3.1-1-4.6-3.1-4.6C309.7,319.6,308.6,321.2,308.6,324.2z"/>
	<path class="st0" d="M351.3,344.3V328c0-2-0.3-3.5-0.9-4.5s-1.5-1.5-2.8-1.5c-1.7,0-3,0.7-3.8,2.1s-1.2,3.8-1.2,7.1v13.1h-10.3
		v-29.9h7.8l1.3,3.7h0.6c0.9-1.4,2.1-2.5,3.6-3.2c1.6-0.7,3.3-1.1,5.4-1.1c3.3,0,5.9,1,7.7,2.9c1.8,1.9,2.8,4.6,2.8,8.1v19.4
		L351.3,344.3L351.3,344.3z"/>
	<path class="st0" d="M403.9,344.3l-1.3-3.7H402c-0.9,1.4-2.1,2.4-3.6,3.1s-3.3,1.1-5.4,1.1c-3.3,0-5.8-1-7.7-2.9
		c-1.8-1.9-2.7-4.6-2.7-8.1v-19.4h10.3v16.3c0,2,0.3,3.4,0.8,4.4c0.6,1,1.5,1.5,2.7,1.5c1.8,0,3-0.7,3.8-2.1s1.1-3.8,1.1-7.1v-13.1
		h10.3v29.9h-7.7V344.3z"/>
	<path class="st0" d="M436.7,344.8c-1.5,0-2.9-0.3-4.1-0.8s-2.4-1.4-3.6-2.7h-0.5c0.3,2.1,0.5,3.4,0.5,3.9v12h-10.3v-42.8h8.4
		l1.4,3.8h0.5c1.9-2.9,4.6-4.3,7.9-4.3s5.9,1.4,7.8,4.1s2.8,6.5,2.8,11.3s-1,8.6-2.9,11.4C442.7,343.4,440,344.8,436.7,344.8z
		 M433.2,322c-1.5,0-2.6,0.5-3.2,1.6s-0.9,2.7-1,4.8v0.8c0,2.6,0.3,4.4,1,5.6s1.8,1.7,3.2,1.7c1.3,0,2.3-0.6,2.9-1.7s0.9-3,0.9-5.6
		s-0.3-4.4-0.9-5.5C435.6,322.6,434.6,322,433.2,322z"/>
	<path class="st0" d="M482.1,336.7c1.4,0,3-0.3,5-1v7.5c-1.4,0.6-2.7,1-4,1.3s-2.7,0.4-4.4,0.4c-3.5,0-6-0.8-7.5-2.5
		s-2.3-4.3-2.3-7.8v-12.3h-3.6V318l4.6-3.2l2.7-6.3h6.7v6h7.3v7.7h-7.3v11.6C479.3,335.7,480.3,336.7,482.1,336.7z"/>
	<path class="st0" d="M520.8,329.3c0,4.9-1.3,8.7-3.9,11.4c-2.6,2.7-6.3,4.1-11,4.1c-4.5,0-8.1-1.4-10.8-4.2c-2.7-2.8-4-6.6-4-11.3
		c0-4.9,1.3-8.6,3.9-11.3c2.6-2.7,6.3-4,11.1-4c2.9,0,5.5,0.6,7.8,1.9s4,3,5.2,5.4C520.2,323.5,520.8,326.2,520.8,329.3z
		 M501.5,329.3c0,2.6,0.3,4.5,1,5.9c0.7,1.3,1.8,2,3.5,2c1.6,0,2.7-0.7,3.4-2c0.7-1.3,1-3.3,1-5.9c0-2.5-0.3-4.5-1-5.8
		s-1.8-1.9-3.4-1.9s-2.7,0.6-3.4,1.9C501.8,324.8,501.5,326.7,501.5,329.3z"/>
	<path class="st0" d="M568.9,314.4v5l-4.1,1.5c0.6,1,0.8,2.2,0.8,3.6c0,3.2-1.1,5.7-3.4,7.5c-2.3,1.8-5.6,2.7-10.1,2.7
		c-1.1,0-2-0.1-2.6-0.2c-0.2,0.5-0.4,0.9-0.4,1.3c0,0.5,0.4,0.9,1.2,1.2s1.9,0.4,3.2,0.4h5c6.7,0,10,2.8,10,8.5
		c0,3.6-1.6,6.5-4.7,8.5c-3.1,2-7.5,3-13.1,3c-4.2,0-7.5-0.7-9.8-2.1s-3.4-3.4-3.4-6.1c0-3.6,2.2-5.9,6.6-6.9
		c-0.9-0.4-1.7-1-2.4-1.9s-1-1.7-1-2.6s0.3-1.8,0.8-2.5s1.6-1.6,3.2-2.5c-1.5-0.7-2.8-1.8-3.7-3.2c-0.9-1.5-1.3-3.2-1.3-5.3
		c0-3.2,1.1-5.8,3.3-7.6c2.2-1.8,5.4-2.7,9.5-2.7c0.5,0,1.5,0.1,2.8,0.2s2.3,0.2,3,0.3L568.9,314.4L568.9,314.4z M546.4,348
		c0,0.8,0.5,1.5,1.4,2s2.1,0.8,3.7,0.8c2.5,0,4.5-0.3,6-0.9s2.3-1.4,2.3-2.4c0-0.8-0.5-1.3-1.4-1.7c-0.9-0.3-2.2-0.5-3.9-0.5h-4
		c-1.1,0-2,0.3-2.8,0.8C546.8,346.6,546.4,347.3,546.4,348z M549.6,324.2c0,3.1,1.1,4.6,3.2,4.6c1,0,1.7-0.4,2.3-1.1
		c0.5-0.8,0.8-1.9,0.8-3.4c0-3.1-1-4.6-3.1-4.6C550.7,319.6,549.6,321.2,549.6,324.2z"/>
	<path class="st0" d="M587.9,344.8c-5,0-8.8-1.3-11.6-4c-2.8-2.6-4.1-6.4-4.1-11.3c0-5,1.3-8.9,3.8-11.6s6.2-4,10.9-4
		c4.5,0,8,1.2,10.4,3.5c2.5,2.3,3.7,5.7,3.7,10.1v4.6h-18.4c0.1,1.7,0.7,3,1.8,3.9c1.2,1,2.7,1.4,4.7,1.4c1.8,0,3.5-0.2,5-0.5
		s3.2-0.9,4.9-1.8v7.4c-1.6,0.8-3.3,1.4-5,1.7C592.3,344.7,590.3,344.8,587.9,344.8z M587.3,320.9c-1.2,0-2.2,0.4-3,1.1
		c-0.8,0.8-1.3,2-1.4,3.6h8.9c0-1.4-0.4-2.6-1.2-3.5C589.6,321.4,588.6,320.9,587.3,320.9z"/>
	<path class="st0" d="M621.4,336.7c1.4,0,3-0.3,5-1v7.5c-1.4,0.6-2.7,1-4,1.3s-2.7,0.4-4.4,0.4c-3.5,0-6-0.8-7.5-2.5
		s-2.3-4.3-2.3-7.8v-12.3h-3.6V318l4.6-3.2l2.7-6.3h6.7v6h7.3v7.7h-7.3v11.6C618.6,335.7,619.6,336.7,621.4,336.7z"/>
	<path class="st0" d="M668.7,335.1c0,3.2-1.1,5.6-3.3,7.2s-5.3,2.5-9.4,2.5c-2.2,0-4.1-0.1-5.8-0.4c-1.6-0.2-3.3-0.7-5-1.3v-8.3
		c1.6,0.7,3.4,1.3,5.3,1.7c1.9,0.5,3.6,0.7,5.1,0.7c2.2,0,3.3-0.5,3.3-1.5c0-0.5-0.3-1-0.9-1.4c-0.6-0.4-2.4-1.2-5.4-2.4
		c-2.7-1.1-4.7-2.4-5.7-3.8c-1.1-1.4-1.6-3.2-1.6-5.4c0-2.8,1.1-4.9,3.2-6.5c2.1-1.6,5.2-2.3,9.1-2.3c2,0,3.8,0.2,5.6,0.6
		c1.7,0.4,3.5,1.1,5.4,1.9l-2.8,6.6c-1.4-0.6-2.8-1.1-4.3-1.6c-1.5-0.4-2.8-0.6-3.7-0.6c-1.7,0-2.5,0.4-2.5,1.2
		c0,0.5,0.3,0.9,0.9,1.3s2.3,1.1,5.1,2.2c2.1,0.9,3.6,1.7,4.7,2.5c1,0.8,1.8,1.8,2.3,2.9C668.5,332.2,668.7,333.5,668.7,335.1z"/>
	<path class="st0" d="M689.1,336.7c1.4,0,3-0.3,5-1v7.5c-1.4,0.6-2.7,1-4,1.3s-2.7,0.4-4.4,0.4c-3.5,0-6-0.8-7.5-2.5
		s-2.3-4.3-2.3-7.8v-12.3h-3.6V318l4.6-3.2l2.7-6.3h6.7v6h7.3v7.7h-7.3v11.6C686.3,335.7,687.2,336.7,689.1,336.7z"/>
	<path class="st0" d="M718.7,344.3l-2-4h-0.2c-1.4,1.7-2.8,2.9-4.2,3.5s-3.3,0.9-5.6,0.9c-2.8,0-5-0.8-6.6-2.5s-2.4-4.1-2.4-7.1
		c0-3.2,1.1-5.6,3.3-7.1c2.2-1.6,5.4-2.4,9.6-2.6l5-0.2v-0.4c0-2.5-1.2-3.7-3.6-3.7c-2.2,0-4.9,0.7-8.3,2.2l-3-6.8
		c3.5-1.8,7.9-2.7,13.2-2.7c3.8,0,6.8,1,8.9,2.8c2.1,1.9,3.2,4.5,3.2,8v19.6h-7.3V344.3z M711.1,337.6c1.2,0,2.3-0.4,3.2-1.2
		s1.3-1.8,1.3-3.1V331l-2.4,0.1c-3.4,0.1-5.1,1.4-5.1,3.7C708.2,336.6,709.1,337.6,711.1,337.6z"/>
	<path class="st0" d="M750.9,313.9c0.9,0,1.7,0.1,2.6,0.2l0.6,0.1l-0.9,9.7c-0.8-0.2-2-0.3-3.5-0.3c-2.2,0-3.9,0.5-4.9,1.5
		s-1.5,2.5-1.5,4.4v14.7H733v-29.9h7.7l1.6,4.8h0.5c0.9-1.6,2.1-2.9,3.6-3.8C747.8,314.4,749.4,313.9,750.9,313.9z"/>
	<path class="st0" d="M772.8,336.7c1.4,0,3-0.3,5-1v7.5c-1.4,0.6-2.7,1-4,1.3s-2.7,0.4-4.4,0.4c-3.5,0-6-0.8-7.5-2.5
		s-2.3-4.3-2.3-7.8v-12.3H756V318l4.6-3.2l2.7-6.3h6.7v6h7.3v7.7H770v11.6C770,335.7,771,336.7,772.8,336.7z"/>
	<path class="st0" d="M797.5,344.8c-5,0-8.8-1.3-11.6-4c-2.8-2.6-4.1-6.4-4.1-11.3c0-5,1.3-8.9,3.8-11.6s6.2-4,10.9-4
		c4.5,0,8,1.2,10.4,3.5c2.5,2.3,3.7,5.7,3.7,10.1v4.6h-18.4c0.1,1.7,0.7,3,1.8,3.9c1.2,1,2.7,1.4,4.7,1.4c1.8,0,3.5-0.2,5-0.5
		s3.2-0.9,4.9-1.8v7.4c-1.6,0.8-3.3,1.4-5,1.7C801.9,344.7,799.8,344.8,797.5,344.8z M796.9,320.9c-1.2,0-2.2,0.4-3,1.1
		c-0.8,0.8-1.3,2-1.4,3.6h8.9c0-1.4-0.4-2.6-1.2-3.5C799.2,321.4,798.2,320.9,796.9,320.9z"/>
	<path class="st0" d="M825.7,344.8c-2.1,0-4-0.6-5.6-1.8s-2.8-3-3.7-5.4c-0.9-2.3-1.3-5.1-1.3-8.2c0-4.9,1-8.6,2.9-11.4
		c2-2.7,4.6-4.1,8-4.1c1.7,0,3.1,0.3,4.4,1c1.3,0.7,2.4,1.8,3.4,3.4h0.2c-0.3-2.3-0.5-4.7-0.5-7v-8H844v41h-7.8l-2.2-3.8h-0.4
		C831.8,343.4,829.2,344.8,825.7,344.8z M829.9,336.7c1.7,0,2.8-0.5,3.5-1.6c0.7-1,1-2.6,1.1-4.8v-0.8c0-2.6-0.4-4.5-1.1-5.6
		c-0.8-1.1-1.9-1.7-3.6-1.7c-1.4,0-2.4,0.6-3.1,1.9c-0.7,1.3-1.1,3.1-1.1,5.4s0.4,4.1,1.1,5.3C827.4,336.1,828.5,336.7,829.9,336.7z
		"/>
</g>
<rect x="438" y="239" class="st0" width="406" height="31.7"/>
</svg>
